<?xml version="1.0" standalone="no"?>
<!DOCTYPE svg PUBLIC "-//W3C//DTD SVG 20010904//EN"
 "http://www.w3.org/TR/2001/REC-SVG-20010904/DTD/svg10.dtd">
<svg version="1.0" xmlns="http://www.w3.org/2000/svg"
 width="300.000000pt" height="300.000000pt" viewBox="0 0 300.000000 300.000000"
 preserveAspectRatio="xMidYMid meet">
<metadata>
Created by potrace 1.11, written by Peter Selinger 2001-2013
</metadata>
<g transform="translate(0.000000,300.000000) scale(0.100000,-0.100000)"
fill="#000000" stroke="none">
<path d="M1276 2779 c-31 -25 -34 -62 -5 -82 20 -14 20 -18 7 -83 -12 -61 -16
-68 -42 -75 -39 -11 -66 -37 -66 -65 0 -26 11 -35 54 -43 31 -7 31 -7 39 -91
4 -47 12 -105 17 -130 8 -40 9 -37 4 25 -3 39 -8 96 -11 128 l-6 57 35 0 c33
0 36 -3 43 -36 3 -20 20 -75 36 -123 l29 -86 -21 -17 c-24 -20 -61 -23 -87 -7
-23 14 -72 -4 -79 -30 -2 -10 -22 -28 -43 -40 -22 -12 -66 -48 -98 -80 -165
-165 -200 -398 -113 -737 78 -302 126 -456 150 -480 40 -40 137 -64 262 -64
l109 0 0 -79 c0 -44 3 -86 6 -94 4 -11 -5 -18 -29 -26 -43 -15 -116 -78 -165
-143 l-37 -49 -75 -3 c-114 -4 -178 -45 -216 -135 -17 -41 -18 -131 -2 -166
11 -24 15 -25 92 -25 l81 0 19 48 c26 67 133 284 149 305 21 25 127 14 127
-14 0 -10 5 -21 11 -25 13 -8 31 16 24 34 -9 25 114 5 201 -33 48 -21 51 -24
46 -54 -4 -32 8 -41 27 -18 8 10 7 17 -2 26 -10 11 -8 11 9 3 38 -20 103 -105
144 -189 l41 -83 120 0 c65 0 119 3 119 6 0 4 -18 35 -40 70 -22 35 -40 66
-40 69 0 17 46 0 80 -31 29 -27 42 -47 46 -75 l7 -39 90 0 90 0 -7 46 c-16
122 -107 239 -209 269 -61 18 -103 19 -165 3 -38 -9 -47 -9 -50 3 -11 35 -135
141 -204 174 -40 19 -78 35 -84 35 -13 0 -20 32 -30 142 l-6 77 28 7 c83 18
118 28 219 61 61 19 115 40 122 47 14 14 1 94 -56 326 -89 366 -93 498 -19
577 28 30 75 44 167 52 l76 6 -2 67 c-1 65 -29 165 -59 218 -70 117 -324 158
-618 99 -54 -11 -100 -18 -102 -17 -4 4 -50 164 -58 203 -6 27 -3 32 23 42 17
6 36 23 43 37 14 32 -3 54 -55 72 -31 11 -32 13 -30 65 1 50 12 69 44 81 4 2
11 15 14 30 5 21 1 33 -19 52 -30 31 -64 33 -100 5z m43 -170 c0 -45 3 -101 7
-125 6 -44 6 -44 -25 -44 -36 0 -36 0 -21 105 11 74 28 145 35 145 2 0 4 -37
4 -81z m-59 -124 c0 -49 -7 -53 -54 -35 -34 13 -33 41 2 62 43 28 52 23 52
-27z m141 26 c24 -19 24 -19 4 -40 -30 -34 -59 -24 -63 22 -3 31 0 37 16 37
11 0 30 -9 43 -19z m599 -358 c36 -17 75 -39 87 -50 l23 -20 -73 -6 c-51 -5
-87 -14 -119 -32 -45 -25 -118 -96 -118 -115 0 -5 -3 -10 -8 -10 -16 0 -35
-112 -39 -240 -6 -189 33 -431 117 -720 35 -122 36 -115 -21 -134 -28 -9 -62
-16 -75 -16 -13 0 -24 -4 -24 -8 0 -19 -237 -54 -375 -55 -109 0 -181 14 -228
45 -31 20 -38 32 -52 92 -10 39 -21 77 -26 85 -23 41 -102 358 -120 480 -24
168 5 336 77 443 43 62 71 91 138 142 47 36 49 36 62 17 21 -30 79 -44 153
-38 63 5 86 13 139 47 24 16 29 49 11 82 -6 11 -8 22 -5 25 13 13 125 21 261
19 143 -2 153 -4 215 -33z m-536 -17 c-43 -33 -165 -47 -207 -25 l-21 12 23 9
c14 5 38 4 60 -3 29 -8 47 -7 96 9 64 21 80 20 49 -2z m6 -48 c0 -30 -115 -57
-183 -44 -23 4 -37 13 -40 27 -4 16 -2 19 11 14 39 -15 71 -15 132 -1 84 18
80 18 80 4z m30 -1626 c0 -16 6 -35 13 -44 28 -36 127 -39 156 -4 6 8 13 28
14 45 1 17 8 31 15 31 23 0 112 -50 111 -63 -1 -6 -22 -31 -48 -54 l-46 -41
-58 19 c-76 26 -209 42 -272 34 l-50 -6 30 31 c38 40 95 79 118 79 12 1 17 -7
17 -27z m-315 -299 c-4 -10 -16 -45 -27 -77 -20 -57 -21 -58 -34 -35 -20 36
-17 82 6 107 26 27 66 31 55 5z"/>
<path d="M1290 1768 c0 -4 -11 -8 -25 -8 -38 0 -156 -31 -185 -49 -48 -28 -70
-55 -81 -93 -14 -53 3 -101 49 -136 33 -25 42 -27 136 -27 187 1 393 39 457
84 36 25 69 71 69 97 0 35 -34 91 -70 117 l-40 28 -155 -2 c-85 -1 -155 -6
-155 -11z"/>
<path d="M1670 1310 c-23 -13 -148 -57 -210 -73 -110 -29 -179 -37 -304 -37
-111 0 -127 -2 -122 -15 6 -18 30 -99 46 -162 8 -33 17 -43 43 -53 152 -56
306 -52 480 14 77 29 165 83 172 107 5 16 -27 165 -45 207 -10 23 -34 28 -60
12z m-110 -108 c1 -9 9 -42 20 -72 26 -75 25 -88 -7 -96 -16 -3 -45 -12 -66
-20 -20 -8 -41 -14 -46 -14 -5 0 -12 28 -16 62 -4 34 -11 75 -16 92 -10 36 0
45 71 62 51 12 60 10 60 -14z m-360 -84 c13 -29 25 -72 28 -95 l4 -41 -33 8
c-57 13 -67 20 -72 53 -3 18 -12 53 -20 80 l-16 47 43 0 c43 0 44 -1 66 -52z"/>
<path d="M1815 880 c-3 -6 -3 -20 0 -31 6 -19 9 -20 22 -6 9 9 13 23 10 31 -7
18 -23 21 -32 6z"/>
<path d="M1137 853 c-4 -3 -7 -15 -7 -25 0 -21 25 -24 33 -4 6 16 -16 40 -26
29z"/>
<path d="M1636 832 c-9 -14 12 -35 28 -29 23 9 20 37 -3 37 -11 0 -22 -4 -25
-8z"/>
<path d="M1276 801 c-10 -16 6 -42 23 -39 9 2 17 13 19 26 3 16 -2 22 -17 22
-11 0 -22 -4 -25 -9z"/>
<path d="M1450 796 c0 -17 24 -38 33 -29 15 15 6 43 -13 43 -11 0 -20 -6 -20
-14z"/>
<path d="M1325 350 c-8 -13 6 -41 19 -37 17 6 19 34 2 40 -9 4 -18 2 -21 -3z"/>
<path d="M1590 304 c0 -31 23 -28 28 4 2 15 -2 22 -12 22 -11 0 -16 -9 -16
-26z"/>
<path d="M1815 160 c-8 -27 10 -49 26 -33 13 13 8 45 -8 50 -6 2 -14 -6 -18
-17z"/>
<path d="M1870 35 c0 -20 4 -26 18 -23 9 2 17 12 17 23 0 11 -8 21 -17 23 -14
3 -18 -3 -18 -23z"/>
</g>
</svg>
